<?xml version="1.0" encoding="UTF-8"?><svg id="a" xmlns="http://www.w3.org/2000/svg" viewBox="0 0 500 500"><defs><style>.b{fill:#fff;}.c{fill:#878787;}</style></defs><rect class="c" width="500" height="500" rx="51.15" ry="51.15"/><g><path class="b" d="M81.78,126.84h52.48c64.5,0,99.08,37.49,99.08,104.14s-34.58,105.65-97.91,105.65h-53.66V126.84Zm50.5,187.9c49.04,0,73.5-30.73,73.5-83.76s-24.46-82.25-73.5-82.25h-23.8v166.01h23.8Z"/><path class="b" d="M274.16,231.91c0-67.66,40.67-108.91,96.29-108.91,29.07,0,48.21,13.19,60.49,25.87l-14.63,17.38c-10.63-10.97-24.09-19.79-45.16-19.79-42.27,0-69.43,32.48-69.43,84.74s24.94,85.78,69.69,85.78c15.05,0,29.52-4.51,37.8-12.32v-54.63h-44.42v-22.12h68.77v88.18c-13.49,14.06-36.47,24.36-64.66,24.36-55.35,0-94.74-40.41-94.74-108.55Z"/></g></svg>